<?xml version="1.0" standalone="yes"?>

<svg version="1.1" viewBox="0.0 0.0 960.0 720.0" fill="none" stroke="none" stroke-linecap="square" stroke-miterlimit="10" xmlns="http://www.w3.org/2000/svg" xmlns:xlink="http://www.w3.org/1999/xlink"><clipPath id="p.0"><path d="m0 0l960.0 0l0 720.0l-960.0 0l0 -720.0z" clip-rule="nonzero"></path></clipPath><g clip-path="url(#p.0)"><path fill="#000000" fill-opacity="0.0" d="m0 0l960.0 0l0 720.0l-960.0 0z" fill-rule="evenodd"></path><path fill="#000000" fill-opacity="0.0" d="m28.9004 360.00055l0 0c0 -143.41565 116.26136 -259.677 259.67703 -259.677l0 0c68.870636 0 134.9205 27.35875 183.61938 76.05764c48.698883 48.698883 76.05765 114.748764 76.05765 183.61937l0 0c0 143.41568 -116.26138 259.677 -259.67703 259.677l0 0c-143.41566 0 -259.67703 -116.26132 -259.67703 -259.677z" fill-rule="evenodd"></path><path stroke="#000000" stroke-width="8.0" stroke-linejoin="round" stroke-linecap="butt" d="m28.9004 360.00055l0 0c0 -143.41565 116.26136 -259.677 259.67703 -259.677l0 0c68.870636 0 134.9205 27.35875 183.61938 76.05764c48.698883 48.698883 76.05765 114.748764 76.05765 183.61937l0 0c0 143.41568 -116.26138 259.677 -259.67703 259.677l0 0c-143.41566 0 -259.67703 -116.26132 -259.67703 -259.677z" fill-rule="evenodd"></path><path fill="#000000" fill-opacity="0.0" d="m411.7543 360.00055l0 0c0 -143.41565 116.26138 -259.677 259.67703 -259.677l0 0c68.870605 0 134.92047 27.35875 183.61938 76.05764c48.698853 48.698883 76.05762 114.748764 76.05762 183.61937l0 0c0 143.41568 -116.26135 259.677 -259.677 259.677l0 0c-143.41565 0 -259.67703 -116.26132 -259.67703 -259.677z" fill-rule="evenodd"></path><path stroke="#000000" stroke-width="8.0" stroke-linejoin="round" stroke-linecap="butt" d="m411.7543 360.00055l0 0c0 -143.41565 116.26138 -259.677 259.67703 -259.677l0 0c68.870605 0 134.92047 27.35875 183.61938 76.05764c48.698853 48.698883 76.05762 114.748764 76.05762 183.61937l0 0c0 143.41568 -116.26135 259.677 -259.677 259.677l0 0c-143.41565 0 -259.67703 -116.26132 -259.67703 -259.677z" fill-rule="evenodd"></path><path fill="#000000" fill-opacity="0.0" d="m237.5853 595.6772l770.7086 0l0 89.921265l-770.7086 0z" fill-rule="evenodd"></path><path fill="#000000" d="m247.05405 707.07715l29.625 -39.921875l-26.125 -36.671875l12.078125 0l13.890625 19.640625q4.34375 6.125 6.171875 9.40625q2.546875 -4.171875 6.046875 -8.71875l15.421875 -20.328125l11.015625 0l-26.90625 36.109375l29.0 40.484375l-12.53125 0l-19.28125 -27.328125q-1.625 -2.34375 -3.34375 -5.109375q-2.5625 4.171875 -3.65625 5.734375l-19.234375 26.703125l-12.171875 0z" fill-rule="nonzero"></path><path fill="#000000" fill-opacity="0.0" d="m627.34906 595.6772l770.7087 0l0 89.921265l-770.7087 0z" fill-rule="evenodd"></path><path fill="#000000" d="m666.1772 707.07715l0 -32.4375l-29.515625 -44.15625l12.328125 0l15.109375 23.09375q4.171875 6.484375 7.78125 12.953125q3.4375 -6.0 8.359375 -13.53125l14.828125 -22.515625l11.8125 0l-30.5625 44.15625l0 32.4375l-10.140625 0z" fill-rule="nonzero"></path><path fill="#000000" d="m457.54724 399.1181l0 0c0 -12.402496 10.054199 -22.456696 22.456696 -22.456696l0 0c5.9558716 0 11.667847 2.3659668 15.879272 6.577423c4.2114563 4.2114563 6.577423 9.923401 6.577423 15.879272l0 0c0 12.402496 -10.054199 22.456696 -22.456696 22.456696l0 0c-12.402496 0 -22.456696 -10.054199 -22.456696 -22.456696z" fill-rule="evenodd"></path><path stroke="#000000" stroke-width="1.0" stroke-linejoin="round" stroke-linecap="butt" d="m457.54724 399.1181l0 0c0 -12.402496 10.054199 -22.456696 22.456696 -22.456696l0 0c5.9558716 0 11.667847 2.3659668 15.879272 6.577423c4.2114563 4.2114563 6.577423 9.923401 6.577423 15.879272l0 0c0 12.402496 -10.054199 22.456696 -22.456696 22.456696l0 0c-12.402496 0 -22.456696 -10.054199 -22.456696 -22.456696z" fill-rule="evenodd"></path></g></svg>

