<?xml version="1.0" standalone="yes"?>

<svg version="1.1" viewBox="0.0 0.0 960.0 720.0" fill="none" stroke="none" stroke-linecap="square" stroke-miterlimit="10" xmlns="http://www.w3.org/2000/svg" xmlns:xlink="http://www.w3.org/1999/xlink"><clipPath id="p.0"><path d="m0 0l960.0 0l0 720.0l-960.0 0l0 -720.0z" clip-rule="nonzero"></path></clipPath><g clip-path="url(#p.0)"><path fill="#000000" fill-opacity="0.0" d="m0 0l960.0 0l0 720.0l-960.0 0z" fill-rule="evenodd"></path><path fill="#000000" fill-opacity="0.0" d="m28.9004 360.00055l0 0c0 -143.41565 116.26136 -259.677 259.67703 -259.677l0 0c68.870636 0 134.9205 27.35875 183.61938 76.05764c48.698883 48.698883 76.05765 114.748764 76.05765 183.61937l0 0c0 143.41568 -116.26138 259.677 -259.67703 259.677l0 0c-143.41566 0 -259.67703 -116.26132 -259.67703 -259.677z" fill-rule="evenodd"></path><path stroke="#000000" stroke-width="8.0" stroke-linejoin="round" stroke-linecap="butt" d="m28.9004 360.00055l0 0c0 -143.41565 116.26136 -259.677 259.67703 -259.677l0 0c68.870636 0 134.9205 27.35875 183.61938 76.05764c48.698883 48.698883 76.05765 114.748764 76.05765 183.61937l0 0c0 143.41568 -116.26138 259.677 -259.67703 259.677l0 0c-143.41566 0 -259.67703 -116.26132 -259.67703 -259.677z" fill-rule="evenodd"></path><path fill="#000000" fill-opacity="0.0" d="m411.7543 360.00055l0 0c0 -143.41565 116.26138 -259.677 259.67703 -259.677l0 0c68.870605 0 134.92047 27.35875 183.61938 76.05764c48.698853 48.698883 76.05762 114.748764 76.05762 183.61937l0 0c0 143.41568 -116.26135 259.677 -259.677 259.677l0 0c-143.41565 0 -259.67703 -116.26132 -259.67703 -259.677z" fill-rule="evenodd"></path><path stroke="#000000" stroke-width="8.0" stroke-linejoin="round" stroke-linecap="butt" d="m411.7543 360.00055l0 0c0 -143.41565 116.26138 -259.677 259.67703 -259.677l0 0c68.870605 0 134.92047 27.35875 183.61938 76.05764c48.698853 48.698883 76.05762 114.748764 76.05762 183.61937l0 0c0 143.41568 -116.26135 259.677 -259.677 259.677l0 0c-143.41565 0 -259.67703 -116.26132 -259.67703 -259.677z" fill-rule="evenodd"></path><path fill="#000000" fill-opacity="0.0" d="m495.45145 202.81627l-68.81891 61.54332" fill-rule="evenodd"></path><path stroke="#000000" stroke-width="8.0" stroke-linejoin="round" stroke-linecap="butt" d="m495.45145 202.81627l-68.81891 61.54332" fill-rule="evenodd"></path><path fill="#000000" fill-opacity="0.0" d="m511.38846 220.2021l-97.07086 98.51967" fill-rule="evenodd"></path><path stroke="#000000" stroke-width="8.0" stroke-linejoin="round" stroke-linecap="butt" d="m511.38846 220.2021l-97.07086 98.51967" fill-rule="evenodd"></path><path fill="#000000" fill-opacity="0.0" d="m524.4157 245.54387l-112.66141 114.45668" fill-rule="evenodd"></path><path stroke="#000000" stroke-width="8.0" stroke-linejoin="round" stroke-linecap="butt" d="m524.4157 245.54387l-112.66141 114.45668" fill-rule="evenodd"></path><path fill="#000000" fill-opacity="0.0" d="m534.56696 273.80316l-123.11813 115.90549" fill-rule="evenodd"></path><path stroke="#000000" stroke-width="8.0" stroke-linejoin="round" stroke-linecap="butt" d="m534.56696 273.80316l-123.11813 115.90549" fill-rule="evenodd"></path><path fill="#000000" fill-opacity="0.0" d="m549.0551 341.16797l-119.49606 114.456696" fill-rule="evenodd"></path><path stroke="#000000" stroke-width="8.0" stroke-linejoin="round" stroke-linecap="butt" d="m549.0551 341.16797l-119.49606 114.456696" fill-rule="evenodd"></path><path fill="#000000" fill-opacity="0.0" d="m541.81104 426.6404l-87.653564 77.51181" fill-rule="evenodd"></path><path stroke="#000000" stroke-width="8.0" stroke-linejoin="round" stroke-linecap="butt" d="m541.81104 426.6404l-87.653564 77.51181" fill-rule="evenodd"></path><path fill="#000000" fill-opacity="0.0" d="m543.98425 300.60367l-126.74017 127.46457" fill-rule="evenodd"></path><path stroke="#000000" stroke-width="8.0" stroke-linejoin="round" stroke-linecap="butt" d="m543.98425 300.60367l-126.74017 127.46457" fill-rule="evenodd"></path><path fill="#000000" fill-opacity="0.0" d="m550.50397 372.31497l-112.28351 103.55905" fill-rule="evenodd"></path><path stroke="#000000" stroke-width="8.0" stroke-linejoin="round" stroke-linecap="butt" d="m550.50397 372.31497l-112.28351 103.55905" fill-rule="evenodd"></path><path fill="#000000" fill-opacity="0.0" d="m237.5853 595.6772l770.7086 0l0 89.921265l-770.7086 0z" fill-rule="evenodd"></path><path fill="#000000" d="m247.05405 707.07715l29.625 -39.921875l-26.125 -36.671875l12.078125 0l13.890625 19.640625q4.34375 6.125 6.171875 9.40625q2.546875 -4.171875 6.046875 -8.71875l15.421875 -20.328125l11.015625 0l-26.90625 36.109375l29.0 40.484375l-12.53125 0l-19.28125 -27.328125q-1.625 -2.34375 -3.34375 -5.109375q-2.5625 4.171875 -3.65625 5.734375l-19.234375 26.703125l-12.171875 0z" fill-rule="nonzero"></path><path fill="#000000" fill-opacity="0.0" d="m627.34906 595.6772l770.7087 0l0 89.921265l-770.7087 0z" fill-rule="evenodd"></path><path fill="#000000" d="m666.1772 707.07715l0 -32.4375l-29.515625 -44.15625l12.328125 0l15.109375 23.09375q4.171875 6.484375 7.78125 12.953125q3.4375 -6.0 8.359375 -13.53125l14.828125 -22.515625l11.8125 0l-30.5625 44.15625l0 32.4375l-10.140625 0z" fill-rule="nonzero"></path><path fill="#000000" fill-opacity="0.0" d="m522.979 475.1706l-60.125977 49.322815" fill-rule="evenodd"></path><path stroke="#000000" stroke-width="8.0" stroke-linejoin="round" stroke-linecap="butt" d="m522.979 475.1706l-60.125977 49.322815" fill-rule="evenodd"></path></g></svg>

